<?xml version="1.0" standalone="no"?>
<!DOCTYPE svg PUBLIC "-//W3C//DTD SVG 20010904//EN"
 "http://www.w3.org/TR/2001/REC-SVG-20010904/DTD/svg10.dtd">
<svg version="1.0" xmlns="http://www.w3.org/2000/svg"
 width="512.000000pt" height="512.000000pt" viewBox="0 0 512.000000 512.000000"
 preserveAspectRatio="xMidYMid meet">

<g transform="translate(0.000000,512.000000) scale(0.100000,-0.100000)"
fill="#000000" stroke="none">
<path d="M1325 4484 c-356 -64 -657 -273 -840 -584 -201 -344 -216 -787 -38
-1145 84 -167 88 -172 1072 -1158 520 -522 958 -955 973 -963 35 -18 101 -18
136 0 15 8 453 441 973 963 984 986 988 991 1072 1158 127 255 158 565 86 841
-140 535 -616 904 -1166 904 -191 0 -353 -36 -520 -115 -136 -64 -232 -135
-381 -279 l-132 -129 -133 130 c-144 142 -242 213 -381 279 -219 103 -487 140
-721 98z m440 -333 c189 -54 280 -116 525 -357 280 -275 258 -276 550 9 218
214 279 259 423 316 120 47 171 56 327 56 167 0 236 -15 366 -75 249 -115 424
-322 495 -585 17 -63 22 -109 23 -220 0 -153 -12 -218 -65 -348 -65 -158 -85
-179 -993 -1087 l-856 -855 -846 845 c-465 465 -868 874 -896 910 -63 82 -120
201 -150 310 -31 118 -31 327 1 445 90 333 350 578 691 651 94 20 313 12 405
-15z"/>
</g>
</svg>
